<svg id="Layer_1" enable-background="new 0 0 512.372 512.372" height="512" viewBox="0 0 512.372 512.372" width="512" xmlns="http://www.w3.org/2000/svg"><path d="m350.943 267.167-25.948-13.622-1.667 55.063 29.31 77.433 13.49-32.741c1.022-2.481 1.603-5.122 1.715-7.803l3.161-75.521c-6.577 1.372-13.65.557-20.061-2.809z"/><path d="m282.04 436.589c-4.841 11.75.759 25.198 12.509 30.039 4.366 1.799 9.234 2.276 14.156 1.085l-18.908-49.952z"/><path d="m153.04 455.589c-4.841 11.75.759 25.198 12.509 30.039 3.802 1.567 7.917 2.098 12.043 1.501l-17.978-47.495z"/><path d="m485.331 237.903c8.965 4.705 20.11 1.295 24.854-7.743 4.725-9.001 1.259-20.128-7.742-24.854l-62.632-32.878-9.036-17.482c0-7.099 0-23.049 0-30.216 0-15.442-12.518-27.96-27.96-27.96h-49.861c-14.397 0-26.248 10.883-27.786 24.871l21.339-5.254-33.952 17.548c.793 3.136 1.219 6.417 1.219 9.795v35.958l.321.372 4.353 2.285 7.215-13.743 37.748-19.511-26.38 22.796-8.318 15.846 50.118 26.31c14.67 7.701 20.32 25.836 12.619 40.506-3.337 6.357-8.635 11.017-14.76 13.634h5.502l70.146 185.317c4.5 11.888 17.781 17.871 29.665 13.374 11.884-4.499 17.872-17.78 13.374-29.665l-64.603-170.669c0-6.172 0-49.497 0-57.277z"/><circle cx="384.544" cy="41.389" r="41.389"/><path d="m381.184 249.16c4.725-9.001 1.259-20.128-7.742-24.854l-62.632-32.878-19.511-37.749 10.475 12.122v-22.071c0-15.442-12.518-27.96-27.96-27.96h-49.861c-14.397 0-26.248 10.883-27.786 24.871l21.339-5.254-35.636 18.418c1.865 4.615 2.903 9.65 2.903 14.925v35.958l.321.372 1.883.989 9.684-18.447 37.748-19.511-26.38 22.796-10.788 20.55 52.588 27.606c14.67 7.701 20.32 25.836 12.619 40.506-2.108 4.017-5.003 7.352-8.39 9.927l69.28 183.024c4.5 11.888 17.781 17.871 29.665 13.374 11.884-4.499 17.872-17.78 13.374-29.665l-64.603-170.669v-44.184l-18.597-9.763c-2.123-1.552-10.362-3.441-12.707-12.788l-11.874-48.222 22.173 42.899c1.733 3.353 4.455 6.092 7.796 7.846l67.766 35.574c8.965 4.706 20.11 1.296 24.853-7.742z"/><path d="m221.943 292.167-26.467-13.894-1.375 54.737 28.352 74.903 14.673-35.614c1.022-2.481 1.603-5.122 1.715-7.803 0 0 3.27-60.121 3.975-69.712-6.802 1.619-14.196.888-20.873-2.617z"/><circle cx="255.544" cy="60.389" r="41.389"/><circle cx="126.544" cy="85.389" r="41.389"/><path d="m113.052 312.182h11.139l70.147 185.318c4.5 11.888 17.781 17.871 29.665 13.374 11.884-4.499 17.872-17.78 13.374-29.665l-64.603-170.669v-57.277l54.557 28.64c8.965 4.705 20.11 1.295 24.854-7.743 4.725-9.001 1.259-20.128-7.742-24.854l-62.632-32.878-9.036-17.482v-30.216c0-15.442-12.518-27.96-27.96-27.96h-49.861c-14.397 0-26.248 10.883-27.786 24.871l21.339-5.254-42.899 22.173c-3.353 1.733-6.092 4.455-7.846 7.796l-35.574 67.766c-4.725 9.001-1.259 20.128 7.742 24.854 8.983 4.716 20.119 1.277 24.854-7.742l32.879-62.632 37.748-19.511-26.38 22.796-12.036 22.929v73.367h.024c-.68 16.248-2.376 56.763-2.986 71.338l-39.993 97.068c-4.841 11.75.759 25.198 12.509 30.039 11.821 4.871 25.228-.832 30.039-12.509l41.539-100.82c1.022-2.481 1.603-5.122 1.715-7.803 3.43-81.992 3.21-76.394 3.21-77.314z"/></svg>